<svg xmlns="http://www.w3.org/2000/svg" xmlns:xlink="http://www.w3.org/1999/xlink" width="150" zoomAndPan="magnify" viewBox="0 0 112.5 60" height="80" preserveAspectRatio="xMidYMid meet" version="1.2"><defs><clipPath id="c8c6394ace"><path d="M 0 0.132812 L 112.003906 0.132812 L 112.003906 59.867188 L 0 59.867188 Z M 0 0.132812 "/></clipPath><clipPath id="8b5aaa21bb"><path d="M 13.179688 0.132812 L 99 0.132812 L 99 59.867188 L 13.179688 59.867188 Z M 13.179688 0.132812 "/></clipPath><clipPath id="cb8cb3180e"><path d="M 13.179688 23 L 99 23 L 99 52 L 13.179688 52 Z M 13.179688 23 "/></clipPath><clipPath id="f1a7096f2d"><path d="M 27.628906 9.390625 L 40 9.390625 L 40 22 L 27.628906 22 Z M 27.628906 9.390625 "/></clipPath><clipPath id="bf5744955b"><path d="M 26.878906 15.515625 C 26.878906 19.308594 29.957031 22.382812 33.75 22.382812 C 35.570312 22.382812 37.320312 21.660156 38.609375 20.371094 C 39.894531 19.082031 40.621094 17.335938 40.621094 15.515625 C 40.621094 13.691406 39.894531 11.945312 38.609375 10.65625 C 37.320312 9.367188 35.570312 8.644531 33.75 8.644531 C 29.957031 8.644531 26.878906 11.71875 26.878906 15.515625 Z M 26.878906 15.515625 "/></clipPath><clipPath id="d1423faa16"><path d="M 33.75 9.539062 C 35.335938 9.539062 36.855469 10.171875 37.972656 11.289062 C 39.09375 12.410156 39.722656 13.929688 39.722656 15.515625 C 39.722656 17.097656 39.09375 18.617188 37.972656 19.738281 C 36.855469 20.859375 35.335938 21.488281 33.75 21.488281 C 32.164062 21.488281 30.644531 20.859375 29.527344 19.738281 C 28.40625 18.617188 27.777344 17.097656 27.777344 15.515625 C 27.777344 13.929688 28.40625 12.410156 29.527344 11.289062 C 30.644531 10.171875 32.164062 9.539062 33.75 9.539062 Z M 33.75 9.539062 "/></clipPath><clipPath id="e58d0852d5"><path d="M 26.878906 8.644531 L 40.320312 8.644531 L 40.320312 22.085938 L 26.878906 22.085938 Z M 26.878906 8.644531 "/></clipPath><clipPath id="a7911272c2"><path d="M 26.878906 15.515625 C 26.878906 19.308594 29.957031 22.382812 33.75 22.382812 C 35.570312 22.382812 37.320312 21.660156 38.609375 20.371094 C 39.894531 19.082031 40.621094 17.335938 40.621094 15.515625 C 40.621094 13.691406 39.894531 11.945312 38.609375 10.65625 C 37.320312 9.367188 35.570312 8.644531 33.75 8.644531 C 29.957031 8.644531 26.878906 11.71875 26.878906 15.515625 Z M 26.878906 15.515625 "/></clipPath><clipPath id="7f79da10f4"><path d="M 26.878906 15.363281 C 26.878906 19.078125 29.890625 22.085938 33.601562 22.085938 C 35.382812 22.085938 37.09375 21.378906 38.351562 20.117188 C 39.613281 18.855469 40.320312 17.148438 40.320312 15.363281 C 40.320312 13.582031 39.613281 11.875 38.351562 10.613281 C 37.09375 9.351562 35.382812 8.644531 33.601562 8.644531 C 29.890625 8.644531 26.878906 11.652344 26.878906 15.363281 Z M 26.878906 15.363281 "/></clipPath></defs><g id="d98c9d9b30"><g clip-rule="nonzero" clip-path="url(#c8c6394ace)"><path style=" stroke:none;fill-rule:nonzero;fill:#ffffff;fill-opacity:1;" d="M 0 0.132812 L 112.003906 0.132812 L 112.003906 59.867188 L 0 59.867188 Z M 0 0.132812 "/><path style=" stroke:none;fill-rule:nonzero;fill:#ffffff;fill-opacity:1;" d="M 0 0.132812 L 112.003906 0.132812 L 112.003906 59.867188 L 0 59.867188 Z M 0 0.132812 "/></g><g clip-rule="nonzero" clip-path="url(#8b5aaa21bb)"><path style=" stroke:none;fill-rule:nonzero;fill:#597d9b;fill-opacity:1;" d="M 97.671875 59.875 L 14.359375 59.875 C 13.820312 59.875 13.382812 59.441406 13.382812 58.902344 L 13.382812 1.117188 C 13.382812 0.578125 13.820312 0.140625 14.359375 0.140625 L 97.671875 0.140625 C 98.210938 0.140625 98.648438 0.578125 98.648438 1.117188 L 98.648438 58.902344 C 98.648438 59.441406 98.210938 59.875 97.671875 59.875 Z M 15.335938 57.925781 L 96.695312 57.925781 L 96.695312 2.09375 L 15.335938 2.09375 Z M 15.335938 57.925781 "/></g><g clip-rule="nonzero" clip-path="url(#cb8cb3180e)"><path style=" stroke:none;fill-rule:nonzero;fill:#597d9b;fill-opacity:1;" d="M 14.359375 51.925781 C 14.066406 51.925781 13.777344 51.796875 13.585938 51.546875 C 13.253906 51.121094 13.335938 50.507812 13.761719 50.175781 L 47.898438 23.890625 C 48.273438 23.601562 48.804688 23.625 49.15625 23.945312 L 70.679688 43.757812 L 80.929688 28.476562 C 81.09375 28.230469 81.355469 28.074219 81.644531 28.046875 C 81.9375 28.019531 82.222656 28.121094 82.429688 28.328125 L 98.359375 44.257812 C 98.742188 44.640625 98.742188 45.257812 98.359375 45.640625 C 97.980469 46.019531 97.359375 46.019531 96.980469 45.640625 L 81.890625 30.546875 L 71.667969 45.789062 C 71.507812 46.027344 71.253906 46.183594 70.972656 46.214844 C 70.6875 46.25 70.40625 46.15625 70.195312 45.964844 L 48.4375 25.941406 L 14.953125 51.722656 C 14.777344 51.859375 14.566406 51.925781 14.359375 51.925781 Z M 14.359375 51.925781 "/></g><path style=" stroke:none;fill-rule:nonzero;fill:#597d9b;fill-opacity:1;" d="M 74.320312 20.296875 C 70.671875 20.296875 67.703125 17.332031 67.703125 13.683594 C 67.703125 10.035156 70.671875 7.066406 74.320312 7.066406 C 77.96875 7.066406 80.9375 10.035156 80.9375 13.683594 C 80.9375 17.332031 77.96875 20.296875 74.320312 20.296875 Z M 74.320312 9.019531 C 71.746094 9.019531 69.65625 11.109375 69.65625 13.683594 C 69.65625 16.253906 71.746094 18.34375 74.320312 18.34375 C 76.890625 18.34375 78.984375 16.253906 78.984375 13.683594 C 78.984375 11.109375 76.890625 9.019531 74.320312 9.019531 Z M 74.320312 9.019531 "/><g clip-rule="nonzero" clip-path="url(#f1a7096f2d)"><g clip-rule="nonzero" clip-path="url(#bf5744955b)"><g clip-rule="nonzero" clip-path="url(#d1423faa16)"><path style=" stroke:none;fill-rule:nonzero;fill:#ffffff;fill-opacity:1;" d="M 33.601562 8.644531 C 29.890625 8.644531 26.878906 11.65625 26.878906 15.363281 C 26.878906 19.074219 29.890625 22.085938 33.601562 22.085938 C 37.308594 22.085938 40.320312 19.074219 40.320312 15.363281 C 40.320312 11.65625 37.308594 8.644531 33.601562 8.644531 Z M 33.601562 9.019531 C 37.109375 9.019531 39.949219 11.859375 39.949219 15.363281 C 39.949219 18.871094 37.109375 21.710938 33.601562 21.710938 C 30.09375 21.710938 27.253906 18.871094 27.253906 15.363281 C 27.253906 11.859375 30.09375 9.019531 33.601562 9.019531 Z M 33.601562 9.019531 "/></g></g></g><g clip-rule="nonzero" clip-path="url(#e58d0852d5)"><g clip-rule="nonzero" clip-path="url(#a7911272c2)"><g clip-rule="nonzero" clip-path="url(#7f79da10f4)"><path style="fill:none;stroke-width:6;stroke-linecap:butt;stroke-linejoin:miter;stroke:#597d9b;stroke-opacity:1;stroke-miterlimit:4;" d="M -0.00222161 9.192898 C -0.00222161 14.276004 4.118782 18.391663 9.196544 18.391663 C 11.633869 18.391663 13.974984 17.424216 15.696078 15.697777 C 17.422517 13.971338 18.389964 11.635568 18.389964 9.192898 C 18.389964 6.755572 17.422517 4.419802 15.696078 2.693363 C 13.974984 0.966925 11.633869 -0.00052255 9.196544 -0.00052255 C 4.118782 -0.00052255 -0.00222161 4.115137 -0.00222161 9.192898 Z M -0.00222161 9.192898 " transform="matrix(0.730822,0,0,0.730822,26.88053,8.644913)"/></g></g></g></g></svg>