<svg xmlns="http://www.w3.org/2000/svg" xmlns:xlink="http://www.w3.org/1999/xlink" width="410" zoomAndPan="magnify" viewBox="0 0 307.5 790.499975" height="1054" preserveAspectRatio="xMidYMid meet" version="1.2"><defs><clipPath id="ce885d5ef5"><path d="M 0 0.390625 L 307 0.390625 L 307 315 L 0 315 Z M 0 0.390625 "/></clipPath><filter x="0%" y="0%" width="100%" filterUnits="objectBoundingBox" id="7b1ee42ad4" height="100%"><feColorMatrix values="0 0 0 0 1 0 0 0 0 1 0 0 0 0 1 0 0 0 1 0" type="matrix" in="SourceGraphic"/></filter><clipPath id="1f7c1e82e3"><path d="M 142 213 L 164 213 L 164 314.878906 L 142 314.878906 Z M 142 213 "/></clipPath><clipPath id="1ddadcbfaf"><path d="M 14 305 L 57 305 L 57 314.878906 L 14 314.878906 Z M 14 305 "/></clipPath><clipPath id="2bd7175737"><path d="M 238 158 L 306.703125 158 L 306.703125 268 L 238 268 Z M 238 158 "/></clipPath><clipPath id="b2f0d404fd"><path d="M 250 305 L 293 305 L 293 314.878906 L 250 314.878906 Z M 250 305 "/></clipPath><clipPath id="185a5c625d"><path d="M 71 0.390625 L 199 0.390625 L 199 111 L 71 111 Z M 71 0.390625 "/></clipPath><clipPath id="e67b10bc31"><rect x="0" width="307" y="0" height="315"/></clipPath><clipPath id="3a394e891d"><path d="M 18 451 L 289 451 L 289 789.609375 L 18 789.609375 Z M 18 451 "/></clipPath><clipPath id="cff99b23ac"><path d="M 3.75 0.339844 L 267 0.339844 L 267 338.042969 L 3.75 338.042969 Z M 3.75 0.339844 "/></clipPath><clipPath id="ab07c2c392"><rect x="0" width="271" y="0" height="339"/></clipPath></defs><g id="ef95a7203c"><g clip-rule="nonzero" clip-path="url(#ce885d5ef5)"><g mask="url(#aa464ac32b)" transform="matrix(1,0,0,1,0,0.000000000000027478)"><g clip-path="url(#e67b10bc31)"><path style=" stroke:none;fill-rule:evenodd;fill:#c4cbcd;fill-opacity:1;" d="M 93.320312 206.828125 L 213.3125 206.828125 L 213.3125 222.183594 L 93.320312 222.183594 Z M 93.320312 206.828125 "/><g clip-rule="nonzero" clip-path="url(#1f7c1e82e3)"><path style=" stroke:none;fill-rule:evenodd;fill:#c4cbcd;fill-opacity:1;" d="M 142.796875 213.085938 L 163.835938 213.085938 L 163.835938 314.878906 L 142.796875 314.878906 Z M 142.796875 213.085938 "/></g><path style=" stroke:none;fill-rule:nonzero;fill:#c4cbcd;fill-opacity:1;" d="M 67.726562 230.144531 C 66.589844 242.085938 55.785156 250.617188 43.84375 248.910156 C 31.902344 247.773438 23.371094 236.96875 25.074219 225.027344 L 32.46875 163.039062 C 33.605469 151.097656 44.410156 142.566406 56.355469 144.273438 C 68.296875 145.410156 76.828125 156.214844 75.121094 168.15625 Z M 67.726562 230.144531 "/><path style=" stroke:none;fill-rule:evenodd;fill:#c4cbcd;fill-opacity:1;" d="M 60.335938 89.109375 C 72.847656 89.109375 83.082031 99.34375 83.082031 111.855469 C 83.082031 124.367188 72.847656 134.605469 60.335938 134.605469 C 47.824219 134.605469 37.585938 124.367188 37.585938 111.855469 C 37.585938 99.34375 47.824219 89.109375 60.335938 89.109375 Z M 60.335938 89.109375 "/><path style=" stroke:none;fill-rule:nonzero;fill:#c4cbcd;fill-opacity:1;" d="M 55.21875 164.175781 C 51.804688 160.195312 52.375 154.507812 55.785156 151.664062 C 59.765625 148.253906 65.453125 148.820312 68.296875 152.234375 L 91.042969 178.394531 L 112.65625 178.394531 C 117.773438 178.394531 121.753906 182.375 121.753906 187.492188 C 121.753906 192.609375 117.773438 196.59375 112.65625 196.59375 L 87.0625 196.59375 C 84.789062 196.59375 81.945312 195.453125 80.238281 193.75 L 54.648438 164.746094 Z M 55.21875 164.175781 "/><path style=" stroke:none;fill-rule:nonzero;fill:#c4cbcd;fill-opacity:1;" d="M 44.410156 248.910156 C 38.726562 247.773438 33.605469 235.832031 34.175781 230.144531 C 35.3125 224.457031 41 220.476562 46.6875 221.613281 C 46.6875 221.613281 105.832031 231.28125 131.421875 296.683594 C 133.695312 302.371094 130.855469 308.625 125.167969 310.332031 C 119.480469 312.605469 113.222656 309.761719 111.519531 304.074219 C 91.042969 250.050781 44.980469 248.910156 44.980469 248.910156 Z M 44.410156 248.910156 "/><path style=" stroke:none;fill-rule:nonzero;fill:#c4cbcd;fill-opacity:1;" d="M 66.023438 260.855469 C 67.726562 261.421875 68.867188 263.699219 68.296875 265.402344 C 67.726562 267.109375 65.453125 268.246094 63.746094 267.679688 C 63.746094 267.679688 58.058594 265.972656 50.667969 264.265625 C 45.550781 263.128906 39.863281 263.128906 34.742188 263.128906 C 21.09375 263.128906 9.722656 263.128906 6.308594 247.207031 C 5.742188 244.363281 5.171875 240.949219 4.601562 236.96875 C 4.601562 233.558594 4.035156 229.578125 4.035156 225.59375 C 4.035156 220.476562 4.035156 215.925781 4.035156 211.945312 C 4.035156 195.453125 4.035156 182.375 0.621094 163.039062 C 0.0546875 161.332031 1.757812 159.058594 3.464844 159.058594 C 5.171875 158.488281 7.445312 160.195312 7.445312 161.902344 C 10.859375 181.804688 10.859375 194.886719 10.859375 211.945312 C 10.859375 216.496094 10.859375 220.476562 10.859375 225.59375 C 10.859375 229.007812 10.859375 232.988281 11.425781 236.402344 C 11.425781 239.8125 11.996094 242.65625 12.566406 245.5 C 14.839844 255.738281 23.9375 255.738281 34.175781 255.738281 C 39.863281 255.738281 45.550781 255.738281 51.234375 256.875 C 59.199219 258.578125 64.886719 260.285156 64.886719 260.285156 Z M 66.023438 260.855469 "/><path style=" stroke:none;fill-rule:nonzero;fill:#c4cbcd;fill-opacity:1;" d="M 30.761719 259.71875 L 39.863281 259.71875 L 39.863281 312.039062 L 30.761719 312.039062 Z M 30.761719 259.71875 "/><g clip-rule="nonzero" clip-path="url(#1ddadcbfaf)"><path style=" stroke:none;fill-rule:nonzero;fill:#c4cbcd;fill-opacity:1;" d="M 51.804688 305.210938 C 54.078125 305.210938 56.355469 307.488281 56.355469 309.761719 C 56.355469 312.039062 54.078125 314.3125 51.804688 314.3125 L 18.820312 314.3125 C 16.546875 314.3125 14.269531 312.039062 14.269531 309.761719 C 14.269531 307.488281 16.546875 305.210938 18.820312 305.210938 Z M 51.804688 305.210938 "/></g><path style=" stroke:none;fill-rule:nonzero;fill:#c4cbcd;fill-opacity:1;" d="M 238.90625 230.144531 C 240.042969 242.085938 250.847656 250.617188 262.789062 248.910156 C 274.734375 247.773438 283.265625 236.96875 281.558594 225.027344 L 274.164062 163.039062 C 273.027344 151.097656 262.222656 142.566406 250.28125 144.273438 C 238.335938 145.410156 229.804688 156.214844 231.511719 168.15625 Z M 238.90625 230.144531 "/><path style=" stroke:none;fill-rule:evenodd;fill:#c4cbcd;fill-opacity:1;" d="M 246.296875 89.109375 C 233.789062 89.109375 223.550781 99.34375 223.550781 111.855469 C 223.550781 124.367188 233.789062 134.605469 246.296875 134.605469 C 258.808594 134.605469 269.046875 124.367188 269.046875 111.855469 C 269.046875 99.34375 258.808594 89.109375 246.296875 89.109375 Z M 246.296875 89.109375 "/><path style=" stroke:none;fill-rule:nonzero;fill:#c4cbcd;fill-opacity:1;" d="M 251.417969 164.175781 C 254.828125 160.195312 254.261719 154.507812 250.847656 151.664062 C 246.867188 148.253906 241.179688 148.820312 238.335938 152.234375 L 215.589844 178.394531 L 193.980469 178.394531 C 188.859375 178.394531 184.878906 182.375 184.878906 187.492188 C 184.878906 192.609375 188.859375 196.59375 193.980469 196.59375 L 219.570312 196.59375 C 221.84375 196.59375 224.6875 195.453125 226.394531 193.75 L 251.984375 164.746094 Z M 251.417969 164.175781 "/><path style=" stroke:none;fill-rule:nonzero;fill:#c4cbcd;fill-opacity:1;" d="M 262.789062 248.910156 C 268.476562 247.773438 273.597656 235.832031 273.027344 230.144531 C 271.890625 224.457031 266.203125 220.476562 260.515625 221.613281 C 260.515625 221.613281 201.371094 231.28125 175.78125 296.683594 C 173.503906 302.371094 176.347656 308.625 182.035156 310.332031 C 187.722656 312.605469 193.980469 309.761719 195.683594 304.074219 C 216.15625 250.050781 262.222656 248.910156 262.222656 248.910156 Z M 262.789062 248.910156 "/><g clip-rule="nonzero" clip-path="url(#2bd7175737)"><path style=" stroke:none;fill-rule:nonzero;fill:#c4cbcd;fill-opacity:1;" d="M 240.613281 260.855469 C 238.90625 261.421875 237.769531 263.699219 238.335938 265.402344 C 238.90625 267.109375 241.179688 268.246094 242.886719 267.679688 C 242.886719 267.679688 248.574219 265.972656 255.964844 264.265625 C 261.085938 263.128906 266.773438 263.128906 271.890625 263.128906 C 285.539062 263.128906 296.914062 263.128906 300.324219 247.207031 C 300.894531 244.363281 301.460938 240.949219 302.03125 236.96875 C 302.03125 233.558594 302.597656 229.578125 302.597656 225.59375 C 302.597656 220.476562 302.597656 215.925781 302.597656 211.945312 C 302.597656 195.453125 302.597656 182.375 306.011719 163.039062 C 306.582031 161.332031 304.875 159.058594 303.167969 159.058594 C 301.460938 158.488281 299.1875 160.195312 299.1875 161.902344 C 295.773438 181.804688 295.773438 194.886719 295.773438 211.945312 C 295.773438 216.496094 295.773438 220.476562 295.773438 225.59375 C 295.773438 229.007812 295.773438 232.988281 295.207031 236.402344 C 295.207031 239.8125 294.636719 242.65625 294.070312 245.5 C 291.792969 255.738281 282.695312 255.738281 272.457031 255.738281 C 266.773438 255.738281 261.085938 255.738281 255.398438 256.875 C 247.4375 258.578125 241.75 260.285156 241.75 260.285156 Z M 240.613281 260.855469 "/></g><path style=" stroke:none;fill-rule:nonzero;fill:#c4cbcd;fill-opacity:1;" d="M 266.773438 259.71875 L 266.773438 312.039062 L 275.871094 312.039062 L 275.871094 259.71875 Z M 266.773438 259.71875 "/><g clip-rule="nonzero" clip-path="url(#b2f0d404fd)"><path style=" stroke:none;fill-rule:nonzero;fill:#c4cbcd;fill-opacity:1;" d="M 254.828125 305.210938 C 252.554688 305.210938 250.28125 307.488281 250.28125 309.761719 C 250.28125 312.039062 252.554688 314.3125 254.828125 314.3125 L 287.8125 314.3125 C 290.089844 314.3125 292.363281 312.039062 292.363281 309.761719 C 292.363281 307.488281 290.089844 305.210938 287.8125 305.210938 Z M 254.828125 305.210938 "/></g><path style=" stroke:none;fill-rule:evenodd;fill:#c4cbcd;fill-opacity:1;" d="M 113.792969 104.464844 C 115.5 105.03125 117.203125 105.03125 118.34375 105.03125 L 168.386719 105.03125 L 195.117188 131.761719 L 195.117188 105.03125 C 208.765625 105.03125 220.140625 93.65625 220.140625 80.007812 L 220.140625 46.457031 C 220.140625 36.21875 213.882812 27.121094 205.351562 23.140625 C 205.351562 24.277344 205.351562 24.847656 205.351562 25.984375 L 205.351562 33.945312 C 208.765625 36.789062 211.039062 41.339844 211.039062 46.457031 L 211.039062 80.007812 C 211.039062 89.109375 203.648438 96.5 194.546875 96.5 L 185.449219 96.5 L 185.449219 110.71875 L 171.230469 96.5 L 121.1875 96.5 L 112.65625 105.03125 Z M 113.792969 104.464844 "/><g clip-rule="nonzero" clip-path="url(#185a5c625d)"><path style=" stroke:none;fill-rule:evenodd;fill:#c4cbcd;fill-opacity:1;" d="M 96.730469 0.390625 L 173.503906 0.390625 C 187.15625 0.390625 198.527344 11.765625 198.527344 25.414062 L 198.527344 58.96875 C 198.527344 72.617188 187.15625 83.992188 173.503906 83.992188 L 123.460938 83.992188 L 96.730469 110.71875 L 96.730469 83.992188 C 83.082031 83.992188 71.710938 72.617188 71.710938 58.96875 L 71.710938 25.414062 C 71.710938 11.765625 83.082031 0.390625 96.730469 0.390625 Z M 105.261719 32.808594 C 110.378906 32.808594 114.929688 37.355469 114.929688 42.476562 C 114.929688 47.59375 110.378906 52.144531 105.261719 52.144531 C 100.144531 52.144531 95.59375 47.59375 95.59375 42.476562 C 95.59375 37.355469 100.144531 32.808594 105.261719 32.808594 Z M 135.402344 32.808594 C 140.519531 32.808594 145.070312 37.355469 145.070312 42.476562 C 145.070312 47.59375 140.519531 52.144531 135.402344 52.144531 C 130.285156 52.144531 125.734375 47.59375 125.734375 42.476562 C 125.734375 37.355469 130.285156 32.808594 135.402344 32.808594 Z M 165.542969 32.808594 C 170.664062 32.808594 175.210938 37.355469 175.210938 42.476562 C 175.210938 47.59375 170.664062 52.144531 165.542969 52.144531 C 160.425781 52.144531 155.875 47.59375 155.875 42.476562 C 155.875 37.355469 160.425781 32.808594 165.542969 32.808594 Z M 165.542969 32.808594 "/></g></g><mask id="aa464ac32b"><g filter="url(#7b1ee42ad4)"><rect x="0" width="307.5" y="0" height="790.499975" style="fill:#000000;fill-opacity:0.14;stroke:none;"/></g></mask></g></g><g clip-rule="nonzero" clip-path="url(#3a394e891d)"><g mask="url(#bd464dd300)" transform="matrix(1,0,0,1,18,451)"><g clip-path="url(#ab07c2c392)"><g clip-rule="nonzero" clip-path="url(#cff99b23ac)"><path style=" stroke:none;fill-rule:nonzero;fill:#c4cbcd;fill-opacity:1;" d="M 264.523438 41.566406 L 134.195312 0.5 C 133.511719 0.285156 132.773438 0.285156 132.089844 0.511719 L 6.355469 41.582031 C 4.941406 42.042969 3.980469 43.363281 3.980469 44.855469 L 3.980469 130.914062 C 3.980469 218.542969 55.003906 299.710938 133.964844 337.703125 C 134.433594 337.925781 134.945312 338.042969 135.457031 338.042969 C 135.96875 338.042969 136.480469 337.925781 136.953125 337.703125 C 215.910156 299.710938 266.933594 218.542969 266.933594 130.914062 L 266.933594 44.855469 C 266.933594 43.351562 265.957031 42.023438 264.523438 41.566406 Z M 234.925781 130.910156 C 234.925781 200.644531 197.480469 265.941406 137.199219 301.324219 C 136.664062 301.640625 136.058594 301.796875 135.457031 301.796875 C 134.855469 301.796875 134.253906 301.640625 133.714844 301.324219 C 73.433594 265.941406 35.988281 200.644531 35.988281 130.910156 L 35.988281 68.082031 C 35.988281 66.589844 36.949219 65.269531 38.367188 64.808594 L 132.261719 34.128906 C 132.945312 33.90625 133.683594 33.90625 134.367188 34.117188 L 232.515625 65.050781 C 233.949219 65.503906 234.925781 66.832031 234.925781 68.335938 Z M 234.925781 130.910156 "/></g><path style=" stroke:none;fill-rule:nonzero;fill:#c4cbcd;fill-opacity:1;" d="M 175.480469 143.121094 L 174.679688 143.121094 L 174.679688 143.113281 L 174.652344 143.113281 L 174.652344 116.859375 C 174.652344 95.222656 157.078125 77.648438 135.4375 77.648438 C 113.796875 77.648438 96.222656 95.222656 96.222656 116.859375 L 96.222656 143.121094 L 95.464844 143.121094 C 86.644531 143.121094 79.476562 150.289062 79.476562 159.109375 L 79.476562 209.625 C 79.476562 218.445312 86.644531 225.613281 95.464844 225.613281 L 175.480469 225.613281 C 184.230469 225.613281 191.398438 218.445312 191.398438 209.625 L 191.398438 159.109375 C 191.398438 150.289062 184.230469 143.121094 175.480469 143.121094 Z M 119.929688 116.859375 C 119.929688 108.316406 126.890625 101.285156 135.4375 101.285156 C 144.050781 101.285156 151.011719 108.316406 151.011719 116.859375 L 151.011719 143.121094 L 119.929688 143.121094 Z M 138.882812 193.636719 L 138.882812 204.871094 C 138.882812 206.800781 137.367188 208.316406 135.4375 208.316406 C 133.578125 208.316406 131.992188 206.800781 131.992188 204.871094 L 131.992188 193.636719 C 124.410156 192.050781 118.757812 185.296875 118.757812 177.234375 C 118.757812 167.929688 126.203125 160.347656 135.4375 160.347656 C 144.671875 160.347656 152.183594 167.929688 152.183594 177.234375 C 152.183594 185.296875 146.464844 192.050781 138.882812 193.636719 Z M 138.882812 193.636719 "/></g><mask id="bd464dd300"><g filter="url(#7b1ee42ad4)"><rect x="0" width="307.5" y="0" height="790.499975" style="fill:#000000;fill-opacity:0.15;stroke:none;"/></g></mask></g></g></g></svg>