<svg xmlns="http://www.w3.org/2000/svg" xmlns:xlink="http://www.w3.org/1999/xlink" width="455" zoomAndPan="magnify" viewBox="0 0 341.25 759.749976" height="1013" preserveAspectRatio="xMidYMid meet" version="1.2"><defs><clipPath id="b9b22657ea"><path d="M 34 0.707031 L 306 0.707031 L 306 271 L 34 271 Z M 34 0.707031 "/></clipPath><filter x="0%" y="0%" width="100%" filterUnits="objectBoundingBox" id="3c04e00ee1" height="100%"><feColorMatrix values="0 0 0 0 1 0 0 0 0 1 0 0 0 0 1 0 0 0 1 0" type="matrix" in="SourceGraphic"/></filter><clipPath id="df71443e3e"><path d="M 80 227 L 192 227 L 192 267.871094 L 80 267.871094 Z M 80 227 "/></clipPath><clipPath id="f815bbd027"><path d="M 76 0.707031 L 142 0.707031 L 142 66 L 76 66 Z M 76 0.707031 "/></clipPath><clipPath id="d0bfb5962c"><rect x="0" width="272" y="0" height="271"/></clipPath><clipPath id="62f3fec99d"><path d="M 0 489 L 340 489 L 340 758.792969 L 0 758.792969 Z M 0 489 "/></clipPath><clipPath id="6ad662d2db"><path d="M 99 219 L 240 219 L 240 268.804688 L 99 268.804688 Z M 99 219 "/></clipPath><clipPath id="21365500cf"><path d="M 0 0.894531 L 339.574219 0.894531 L 339.574219 210 L 0 210 Z M 0 0.894531 "/></clipPath><clipPath id="28628ba03f"><rect x="0" width="340" y="0" height="270"/></clipPath></defs><g id="2efb7922a4"><g clip-rule="nonzero" clip-path="url(#b9b22657ea)"><g mask="url(#646634f587)" transform="matrix(1,0,0,1,34,-0.000000000000018874)"><g clip-path="url(#d0bfb5962c)"><path style=" stroke:none;fill-rule:nonzero;fill:#c4cbcd;fill-opacity:1;" d="M 263.800781 32.972656 L 224.746094 32.972656 C 228.707031 37.21875 228.988281 44.007812 225.308594 48.539062 L 225.027344 49.101562 L 254.175781 49.101562 L 254.175781 185.515625 L 17.578125 185.515625 L 17.578125 49.101562 L 69.9375 49.101562 L 67.957031 43.726562 C 66.824219 40.046875 67.390625 36.085938 69.652344 32.972656 L 7.957031 32.972656 C 4.277344 32.972656 1.449219 35.800781 1.449219 39.480469 L 1.449219 212.96875 C 1.449219 216.644531 4.277344 219.476562 7.957031 219.476562 L 263.800781 219.476562 C 267.480469 219.476562 270.308594 216.644531 270.308594 212.96875 L 270.308594 39.480469 C 270.308594 35.800781 267.480469 32.972656 263.800781 32.972656 Z M 135.878906 210.703125 C 131.351562 210.703125 127.671875 207.023438 127.671875 202.496094 C 127.671875 197.96875 131.351562 194.289062 135.878906 194.289062 C 140.40625 194.289062 144.085938 197.96875 144.085938 202.496094 C 144.085938 206.742188 140.40625 210.703125 135.878906 210.703125 Z M 135.878906 210.703125 "/><g clip-rule="nonzero" clip-path="url(#df71443e3e)"><path style=" stroke:none;fill-rule:nonzero;fill:#c4cbcd;fill-opacity:1;" d="M 191.632812 259.097656 L 191.632812 265.324219 C 191.632812 266.738281 190.5 267.871094 189.085938 267.871094 L 82.671875 267.871094 C 81.257812 267.871094 80.125 266.738281 80.125 265.324219 L 80.125 259.097656 C 80.125 257.683594 81.257812 256.550781 82.671875 256.550781 L 101.632812 256.550781 L 106.726562 227.964844 L 165.3125 227.964844 L 170.40625 256.550781 L 189.367188 256.550781 C 190.5 256.550781 191.632812 257.683594 191.632812 259.097656 Z M 191.632812 259.097656 "/></g><path style=" stroke:none;fill-rule:nonzero;fill:#c4cbcd;fill-opacity:1;" d="M 225.027344 60.421875 L 218.234375 59.574219 C 215.6875 59.292969 213.421875 57.59375 212.292969 55.046875 C 211.441406 52.5 211.726562 49.953125 213.140625 47.6875 L 217.386719 42.3125 C 217.953125 41.460938 217.953125 40.328125 217.101562 39.480469 L 210.027344 32.40625 C 209.179688 31.554688 208.046875 31.554688 207.199219 32.121094 L 201.820312 36.367188 C 199.839844 38.066406 197.007812 38.347656 194.460938 37.214844 C 191.914062 36.367188 190.21875 34.105469 189.933594 31.554688 L 189.652344 25.046875 C 189.652344 23.914062 188.519531 23.066406 187.667969 23.066406 L 177.480469 23.066406 C 176.347656 23.066406 175.5 23.914062 175.5 25.046875 L 174.652344 31.839844 C 174.367188 34.386719 172.671875 36.652344 170.121094 37.5 C 167.574219 38.632812 165.027344 38.347656 162.765625 36.652344 L 157.386719 32.40625 C 156.539062 31.839844 155.40625 31.839844 154.558594 32.6875 L 147.480469 39.765625 C 146.632812 40.613281 146.632812 41.746094 147.199219 42.59375 L 151.445312 47.972656 C 153.140625 49.953125 153.425781 52.78125 152.292969 55.328125 C 151.160156 57.875 149.179688 59.574219 146.351562 59.859375 L 139.558594 60.707031 C 138.425781 60.707031 137.578125 61.839844 137.578125 62.6875 L 137.578125 72.875 C 137.578125 74.007812 138.425781 74.855469 139.558594 74.855469 L 146.351562 75.707031 C 148.898438 75.988281 151.160156 77.6875 152.292969 80.234375 C 153.425781 82.78125 152.859375 85.328125 151.445312 87.59375 L 147.199219 92.6875 C 146.632812 93.535156 146.632812 94.667969 147.480469 95.515625 L 154.558594 102.59375 C 155.40625 103.441406 156.539062 103.441406 157.386719 102.875 L 162.765625 98.628906 C 164.746094 96.933594 167.574219 96.648438 170.121094 97.78125 C 172.671875 98.628906 174.367188 100.894531 174.652344 103.722656 L 175.5 110.515625 C 175.5 111.648438 176.632812 112.496094 177.480469 112.496094 L 187.667969 112.496094 C 188.800781 112.496094 189.652344 111.648438 189.652344 110.515625 L 190.5 103.722656 C 190.78125 101.175781 192.480469 98.914062 195.027344 97.78125 C 197.574219 96.648438 200.121094 96.933594 202.386719 98.628906 L 207.761719 102.875 C 208.613281 103.441406 209.746094 103.441406 210.59375 102.59375 L 217.667969 95.515625 C 218.519531 94.667969 218.519531 93.535156 217.953125 92.6875 L 213.707031 87.308594 C 212.007812 85.328125 211.726562 82.5 212.859375 79.953125 C 213.988281 77.40625 215.972656 75.707031 218.800781 75.421875 L 225.59375 74.574219 C 226.726562 74.292969 227.574219 73.441406 227.574219 72.59375 L 227.574219 62.40625 C 227.007812 61.273438 226.160156 60.421875 225.027344 60.421875 Z M 182.292969 87.027344 C 171.539062 87.027344 162.765625 78.253906 162.765625 67.5 C 162.765625 56.746094 171.539062 47.972656 182.292969 47.972656 C 193.046875 47.972656 201.820312 56.746094 201.820312 67.5 C 201.820312 78.253906 193.046875 87.027344 182.292969 87.027344 Z M 182.292969 87.027344 "/><path style=" stroke:none;fill-rule:nonzero;fill:#c4cbcd;fill-opacity:1;" d="M 182.292969 55.894531 C 175.785156 55.894531 170.6875 60.988281 170.6875 67.5 C 170.6875 74.007812 175.785156 79.101562 182.292969 79.101562 C 188.800781 79.101562 193.894531 74.007812 193.894531 67.5 C 193.894531 60.988281 188.800781 55.894531 182.292969 55.894531 Z M 182.292969 55.894531 "/><path style=" stroke:none;fill-rule:nonzero;fill:#c4cbcd;fill-opacity:1;" d="M 148.332031 107.96875 L 141.539062 107.121094 C 138.992188 106.835938 136.726562 105.140625 135.59375 102.59375 C 134.746094 100.046875 135.03125 97.5 136.445312 95.234375 L 140.691406 89.855469 C 141.253906 89.007812 141.253906 87.875 140.40625 87.027344 L 133.332031 79.953125 C 132.484375 79.101562 131.351562 79.101562 130.5 79.667969 L 125.125 83.914062 C 123.144531 85.613281 120.3125 85.894531 117.765625 84.761719 C 115.21875 83.914062 113.519531 81.648438 113.238281 79.101562 L 112.390625 72.308594 C 112.390625 71.179688 111.257812 70.328125 110.40625 70.328125 L 100.21875 70.328125 C 99.085938 70.328125 98.238281 71.179688 98.238281 72.308594 L 97.390625 79.101562 C 97.105469 81.648438 95.40625 83.914062 92.859375 84.761719 C 90.3125 85.894531 87.765625 85.613281 85.503906 83.914062 L 80.125 79.667969 C 79.277344 79.101562 78.144531 79.101562 77.296875 79.953125 L 70.785156 87.308594 C 69.9375 88.160156 69.9375 89.289062 70.503906 90.140625 L 74.75 95.515625 C 76.445312 97.5 76.730469 100.328125 75.597656 102.875 C 74.464844 105.421875 72.484375 107.121094 69.652344 107.402344 L 62.863281 108.253906 C 61.730469 108.253906 60.878906 109.382812 60.878906 110.234375 L 60.878906 120.421875 C 60.878906 121.554688 61.730469 122.402344 62.863281 122.402344 L 69.652344 123.253906 C 72.199219 123.535156 74.464844 125.234375 75.597656 127.78125 C 76.730469 130.328125 76.164062 132.875 74.75 135.140625 L 70.785156 140.234375 C 70.21875 141.082031 70.21875 142.214844 71.070312 143.0625 L 78.144531 150.136719 C 78.992188 150.988281 80.125 150.988281 80.972656 150.421875 L 86.351562 146.175781 C 88.332031 144.476562 91.164062 144.195312 93.710938 145.328125 C 96.257812 146.175781 97.957031 148.441406 98.238281 151.269531 L 99.085938 158.0625 C 99.085938 159.195312 100.21875 160.042969 101.066406 160.042969 L 111.257812 160.042969 C 112.386719 160.042969 113.238281 159.195312 113.238281 158.0625 L 114.085938 151.269531 C 114.371094 148.722656 116.066406 146.460938 118.613281 145.328125 C 121.160156 144.195312 123.710938 144.476562 125.972656 146.175781 L 131.351562 150.421875 C 132.199219 150.988281 133.332031 150.988281 134.179688 150.136719 L 141.253906 143.0625 C 142.105469 142.214844 142.105469 141.082031 141.539062 140.234375 L 137.292969 134.855469 C 135.59375 132.875 135.3125 130.042969 136.445312 127.496094 C 137.578125 124.949219 139.558594 123.253906 142.386719 122.96875 L 149.179688 122.121094 C 150.3125 121.835938 151.160156 120.988281 151.160156 120.140625 L 151.160156 109.949219 C 150.3125 108.820312 149.464844 107.96875 148.332031 107.96875 Z M 105.878906 134.574219 C 95.125 134.574219 86.351562 125.800781 86.351562 115.046875 C 86.351562 104.289062 95.125 95.515625 105.878906 95.515625 C 116.632812 95.515625 125.40625 104.289062 125.40625 115.046875 C 125.125 125.800781 116.632812 134.574219 105.878906 134.574219 Z M 105.878906 134.574219 "/><path style=" stroke:none;fill-rule:nonzero;fill:#c4cbcd;fill-opacity:1;" d="M 105.878906 103.441406 C 99.371094 103.441406 94.277344 108.535156 94.277344 115.046875 C 94.277344 121.554688 99.371094 126.648438 105.878906 126.648438 C 112.386719 126.648438 117.484375 121.554688 117.484375 115.046875 C 117.484375 108.535156 112.386719 103.441406 105.878906 103.441406 Z M 105.878906 103.441406 "/><g clip-rule="nonzero" clip-path="url(#f815bbd027)"><path style=" stroke:none;fill-rule:nonzero;fill:#c4cbcd;fill-opacity:1;" d="M 139.839844 42.3125 L 135.59375 39.480469 C 133.898438 38.347656 133.046875 36.652344 133.332031 34.667969 C 133.332031 32.6875 134.464844 30.992188 136.445312 30.140625 L 140.972656 27.878906 C 141.539062 27.59375 142.105469 26.746094 141.820312 25.894531 L 139.273438 18.820312 C 138.707031 18.539062 137.859375 17.972656 137.292969 18.253906 L 132.484375 19.386719 C 130.5 19.953125 128.804688 19.105469 127.386719 17.6875 C 125.972656 16.273438 125.691406 14.292969 126.257812 12.3125 L 127.953125 7.5 C 128.238281 6.652344 127.953125 5.800781 127.105469 5.519531 L 120.3125 2.125 C 119.746094 1.839844 118.898438 2.125 118.332031 2.6875 L 115.5 6.933594 C 114.371094 8.632812 112.671875 9.480469 110.691406 9.199219 C 108.710938 9.199219 107.011719 8.066406 106.164062 6.367188 L 103.898438 1.839844 C 103.617188 0.992188 102.765625 0.707031 101.917969 0.992188 L 94.84375 3.539062 C 93.992188 3.820312 93.710938 4.671875 93.710938 5.238281 L 94.84375 10.046875 C 95.125 12.027344 94.558594 13.726562 93.144531 15.140625 C 91.730469 16.558594 89.746094 16.839844 87.765625 16.273438 L 82.957031 14.574219 C 82.105469 14.292969 81.539062 14.574219 80.972656 15.425781 L 77.859375 21.933594 C 77.578125 22.785156 77.859375 23.347656 78.425781 23.914062 L 82.671875 26.746094 C 84.371094 27.878906 85.21875 29.574219 84.9375 31.554688 C 84.9375 33.539062 83.804688 35.234375 82.105469 36.085938 L 77.578125 38.347656 C 76.730469 38.632812 76.445312 39.480469 76.730469 40.328125 L 78.992188 47.40625 C 79.277344 48.253906 80.125 48.539062 80.691406 48.539062 L 85.785156 47.40625 C 87.765625 46.839844 89.464844 47.6875 90.878906 49.101562 C 92.292969 50.519531 92.578125 52.5 92.011719 54.480469 L 90.3125 59.292969 C 90.03125 60.140625 90.3125 60.988281 91.164062 61.273438 L 97.957031 64.667969 C 98.519531 64.953125 99.652344 64.667969 99.9375 64.101562 L 102.765625 59.859375 C 103.898438 58.160156 105.597656 57.3125 107.578125 57.59375 C 109.558594 57.59375 111.257812 58.726562 112.105469 60.421875 L 114.371094 64.953125 C 114.652344 65.800781 115.5 66.082031 116.351562 65.800781 L 123.425781 63.253906 C 124.273438 62.972656 124.558594 62.121094 124.558594 61.554688 L 123.425781 56.746094 C 122.859375 54.761719 123.710938 53.066406 125.125 51.648438 C 126.539062 50.234375 128.519531 49.953125 130.5 50.519531 L 135.3125 52.214844 C 136.160156 52.5 136.726562 52.214844 137.292969 51.367188 L 140.40625 44.859375 C 140.691406 43.726562 140.40625 42.878906 139.839844 42.3125 Z M 103.050781 46.273438 C 95.972656 42.878906 93.144531 34.386719 96.539062 27.3125 C 99.9375 20.234375 108.425781 17.40625 115.5 20.800781 C 122.578125 24.199219 125.40625 32.6875 122.011719 39.765625 C 118.613281 46.554688 110.125 49.667969 103.050781 46.273438 Z M 103.050781 46.273438 "/></g><path style=" stroke:none;fill-rule:nonzero;fill:#c4cbcd;fill-opacity:1;" d="M 113.238281 25.613281 C 108.992188 23.632812 103.898438 25.332031 101.917969 29.574219 C 99.9375 33.820312 101.632812 38.914062 105.878906 40.894531 C 110.125 42.878906 115.21875 41.179688 117.199219 36.933594 C 119.179688 32.972656 117.484375 27.878906 113.238281 25.613281 Z M 113.238281 25.613281 "/></g><mask id="646634f587"><g filter="url(#3c04e00ee1)"><rect x="0" width="341.25" y="0" height="759.749976" style="fill:#000000;fill-opacity:0.15;stroke:none;"/></g></mask></g></g><g clip-rule="nonzero" clip-path="url(#62f3fec99d)"><g mask="url(#62fae98517)" transform="matrix(1,0,0,1,0,489)"><g clip-path="url(#28628ba03f)"><path style=" stroke:none;fill-rule:nonzero;fill:#c4cbcd;fill-opacity:1;" d="M 99.753906 180.40625 L 99.753906 199.1875 C 99.753906 214.367188 127.914062 230.621094 169.832031 230.621094 C 211.753906 230.621094 239.910156 214.367188 239.910156 199.1875 L 239.910156 180.40625 C 226.671875 193.191406 200.554688 201.71875 169.832031 201.71875 C 139.113281 201.71875 112.996094 193.195312 99.753906 180.40625 Z M 99.753906 180.40625 "/><g clip-rule="nonzero" clip-path="url(#6ad662d2db)"><path style=" stroke:none;fill-rule:nonzero;fill:#c4cbcd;fill-opacity:1;" d="M 169.832031 239.929688 C 139.460938 239.929688 113.589844 231.597656 100.210938 219.054688 L 99.753906 219.054688 L 99.753906 237.402344 C 99.753906 252.585938 127.914062 268.839844 169.832031 268.839844 C 211.753906 268.839844 239.910156 252.585938 239.910156 237.402344 L 239.910156 219.054688 L 239.449219 219.054688 C 226.070312 231.597656 200.199219 239.929688 169.832031 239.929688 Z M 169.832031 239.929688 "/></g><path style=" stroke:none;fill-rule:nonzero;fill:#c4cbcd;fill-opacity:1;" d="M 99.753906 142.1875 L 99.753906 160.984375 C 99.753906 176.164062 127.914062 192.417969 169.832031 192.417969 C 211.753906 192.417969 239.910156 176.164062 239.910156 160.984375 L 239.910156 142.1875 C 226.671875 154.972656 200.554688 163.5 169.832031 163.5 C 139.113281 163.5 112.996094 154.972656 99.753906 142.1875 Z M 99.753906 142.1875 "/><path style=" stroke:none;fill-rule:nonzero;fill:#c4cbcd;fill-opacity:1;" d="M 220.613281 101.453125 C 207.085938 94.921875 189.054688 91.320312 169.832031 91.320312 C 150.605469 91.320312 132.582031 94.921875 119.046875 101.453125 C 106.789062 107.378906 99.753906 115.144531 99.753906 122.765625 C 99.753906 130.386719 106.789062 138.160156 119.046875 144.082031 C 132.574219 150.617188 150.605469 154.207031 169.832031 154.207031 C 189.054688 154.207031 207.078125 150.617188 220.613281 144.082031 C 232.878906 138.160156 239.910156 130.386719 239.910156 122.765625 C 239.910156 115.144531 232.878906 107.378906 220.613281 101.453125 Z M 220.613281 101.453125 "/><g clip-rule="nonzero" clip-path="url(#21365500cf)"><path style=" stroke:none;fill-rule:nonzero;fill:#c4cbcd;fill-opacity:1;" d="M 309.195312 115.714844 C 306.96875 114.804688 305.808594 112.34375 306.515625 110.039062 C 307.886719 105.570312 308.585938 100.902344 308.585938 96.164062 C 308.585938 70.242188 287.503906 49.164062 261.59375 49.164062 C 259.097656 49.164062 256.589844 49.371094 254.121094 49.757812 C 251.816406 50.132812 249.574219 48.71875 248.925781 46.464844 C 241.117188 19.652344 216.136719 0.921875 188.1875 0.921875 C 168.15625 0.921875 149.09375 10.566406 137.207031 26.730469 C 136.203125 28.09375 134.539062 28.800781 132.863281 28.589844 C 130.777344 28.320312 128.65625 28.1875 126.578125 28.1875 C 106.511719 28.1875 88.722656 40.222656 81.246094 58.84375 C 80.539062 60.597656 78.851562 61.746094 76.964844 61.757812 C 50.214844 61.933594 28.449219 83.832031 28.449219 110.582031 C 28.449219 111.496094 28.472656 112.421875 28.527344 113.417969 C 28.632812 115.226562 27.671875 116.933594 26.066406 117.789062 C 10.066406 126.285156 0.132812 142.816406 0.132812 160.925781 C 0.132812 187.851562 22.039062 209.757812 48.960938 209.757812 L 90.453125 209.757812 L 90.453125 124.886719 C 90.453125 124.660156 90.46875 124.441406 90.511719 124.222656 C 90.46875 123.742188 90.453125 123.253906 90.453125 122.757812 C 90.453125 99.914062 125.328125 82.023438 169.832031 82.023438 C 213.324219 82.023438 247.601562 99.105469 249.144531 121.195312 C 249.191406 121.429688 249.207031 121.667969 249.207031 121.917969 L 249.207031 209.765625 L 290.699219 209.765625 C 317.625 209.765625 339.527344 187.859375 339.527344 160.933594 C 339.527344 141 327.621094 123.261719 309.195312 115.714844 Z M 309.195312 115.714844 "/></g></g><mask id="62fae98517"><g filter="url(#3c04e00ee1)"><rect x="0" width="341.25" y="0" height="759.749976" style="fill:#000000;fill-opacity:0.15;stroke:none;"/></g></mask></g></g></g></svg>