<svg xmlns="http://www.w3.org/2000/svg" xmlns:xlink="http://www.w3.org/1999/xlink" width="676" zoomAndPan="magnify" viewBox="0 0 507 1416.749936" height="1889" preserveAspectRatio="xMidYMid meet" version="1.2"><defs><clipPath id="3093343903"><path d="M 0.0429688 0 L 506.953125 0 L 506.953125 424 L 0.0429688 424 Z M 0.0429688 0 "/></clipPath><filter x="0%" y="0%" width="100%" filterUnits="objectBoundingBox" id="56c0603ac1" height="100%"><feColorMatrix values="0 0 0 0 1 0 0 0 0 1 0 0 0 0 1 0 0 0 1 0" type="matrix" in="SourceGraphic"/></filter><clipPath id="7c17b98ed3"><path d="M 108 368 L 166 368 L 166 422.925781 L 108 422.925781 Z M 108 368 "/></clipPath><clipPath id="beb22e8c47"><path d="M 174 368 L 233 368 L 233 422.925781 L 174 422.925781 Z M 174 368 "/></clipPath><clipPath id="6f0d73e62c"><path d="M 242 368 L 300 368 L 300 422.925781 L 242 422.925781 Z M 242 368 "/></clipPath><clipPath id="a3c2e98311"><path d="M 0.0429688 0 L 506.953125 0 L 506.953125 417 L 0.0429688 417 Z M 0.0429688 0 "/></clipPath><clipPath id="c655d8bcb4"><path d="M 309 368 L 368 368 L 368 422.925781 L 309 422.925781 Z M 309 368 "/></clipPath><clipPath id="afdc8c2ad7"><path d="M 376 368 L 435 368 L 435 422.925781 L 376 422.925781 Z M 376 368 "/></clipPath><clipPath id="0da534f790"><rect x="0" width="507" y="0" height="424"/></clipPath><clipPath id="e9a56de5bc"><path d="M 0.0429688 475 L 506.953125 475 L 506.953125 902 L 0.0429688 902 Z M 0.0429688 475 "/></clipPath><clipPath id="7cf0743f37"><path d="M 108 371 L 166 371 L 166 425.949219 L 108 425.949219 Z M 108 371 "/></clipPath><clipPath id="e0d7291d3e"><path d="M 174 371 L 233 371 L 233 425.949219 L 174 425.949219 Z M 174 371 "/></clipPath><clipPath id="3164b5c822"><path d="M 242 371 L 300 371 L 300 425.949219 L 242 425.949219 Z M 242 371 "/></clipPath><clipPath id="aea040e37a"><path d="M 0.0429688 3.023438 L 506.953125 3.023438 L 506.953125 420 L 0.0429688 420 Z M 0.0429688 3.023438 "/></clipPath><clipPath id="854cd7fe5a"><path d="M 309 371 L 368 371 L 368 425.949219 L 309 425.949219 Z M 309 371 "/></clipPath><clipPath id="3f586540d6"><path d="M 376 371 L 435 371 L 435 425.949219 L 376 425.949219 Z M 376 371 "/></clipPath><clipPath id="1df4a84c91"><rect x="0" width="507" y="0" height="427"/></clipPath><clipPath id="e0c627b17b"><path d="M 0.0429688 991 L 506.953125 991 L 506.953125 1416.5 L 0.0429688 1416.5 Z M 0.0429688 991 "/></clipPath><clipPath id="149109ede9"><path d="M 108 370 L 166 370 L 166 425.320312 L 108 425.320312 Z M 108 370 "/></clipPath><clipPath id="1556a340c0"><path d="M 174 370 L 233 370 L 233 425.320312 L 174 425.320312 Z M 174 370 "/></clipPath><clipPath id="885e846051"><path d="M 242 370 L 300 370 L 300 425.320312 L 242 425.320312 Z M 242 370 "/></clipPath><clipPath id="b419c79205"><path d="M 0.0429688 2.394531 L 506.953125 2.394531 L 506.953125 420 L 0.0429688 420 Z M 0.0429688 2.394531 "/></clipPath><clipPath id="3cd3877f39"><path d="M 309 370 L 368 370 L 368 425.320312 L 309 425.320312 Z M 309 370 "/></clipPath><clipPath id="e68f8cf5d2"><path d="M 376 370 L 435 370 L 435 425.320312 L 376 425.320312 Z M 376 370 "/></clipPath><clipPath id="7ff9cf4d46"><rect x="0" width="507" y="0" height="426"/></clipPath></defs><g id="29688e4e2d"><g clip-rule="nonzero" clip-path="url(#3093343903)"><g mask="url(#29dc7f7e6c)" transform="matrix(1,0,0,1,0,0.000000000000091394)"><g clip-path="url(#0da534f790)"><g clip-rule="nonzero" clip-path="url(#7c17b98ed3)"><path style=" stroke:none;fill-rule:nonzero;fill:#c4cbcd;fill-opacity:1;" d="M 137.03125 368.128906 L 145.566406 386.632812 L 165.800781 389.03125 L 150.839844 402.867188 L 154.8125 422.851562 L 137.03125 412.898438 L 119.25 422.851562 L 123.222656 402.867188 L 108.261719 389.03125 L 128.496094 386.632812 Z M 137.03125 368.128906 "/></g><g clip-rule="nonzero" clip-path="url(#beb22e8c47)"><path style=" stroke:none;fill-rule:nonzero;fill:#c4cbcd;fill-opacity:1;" d="M 203.757812 368.128906 L 212.292969 386.632812 L 232.527344 389.03125 L 217.566406 402.867188 L 221.539062 422.851562 L 203.757812 412.898438 L 185.976562 422.851562 L 189.949219 402.867188 L 174.988281 389.03125 L 195.222656 386.632812 Z M 203.757812 368.128906 "/></g><g clip-rule="nonzero" clip-path="url(#6f0d73e62c)"><path style=" stroke:none;fill-rule:nonzero;fill:#c4cbcd;fill-opacity:1;" d="M 271.007812 368.128906 L 279.542969 386.632812 L 299.777344 389.03125 L 284.816406 402.867188 L 288.789062 422.851562 L 271.007812 412.898438 L 253.226562 422.851562 L 257.199219 402.867188 L 242.238281 389.03125 L 262.472656 386.632812 Z M 271.007812 368.128906 "/></g><g clip-rule="nonzero" clip-path="url(#a3c2e98311)"><path style=" stroke:none;fill-rule:nonzero;fill:#c4cbcd;fill-opacity:1;" d="M 451.136719 369.441406 L 347.566406 284.570312 C 335.769531 310.355469 312.277344 327.933594 285.222656 327.933594 L 142.476562 327.933594 L 48.175781 416.972656 L 48.175781 323.71875 C 20.296875 312.914062 0.214844 282.550781 0.214844 246.785156 L 0.214844 128.683594 C 0.214844 83.863281 31.746094 47.53125 70.640625 47.53125 L 104.128906 47.53125 C 116.910156 19.492188 145.183594 0.00390625 178.007812 0.00390625 L 425.25 0.00390625 C 470.066406 0.00390625 506.398438 36.335938 506.398438 81.152344 L 506.398438 199.253906 C 506.398438 235.023438 483.261719 265.382812 451.136719 276.1875 Z M 178.007812 280.40625 C 133.191406 280.40625 96.859375 244.074219 96.859375 199.253906 L 96.859375 81.152344 C 96.859375 78.558594 96.980469 75.992188 97.21875 73.460938 L 83.222656 73.460938 C 51.519531 73.460938 25.816406 103.074219 25.816406 139.601562 L 25.816406 235.867188 C 25.816406 268.625 46.484375 295.820312 73.617188 301.085938 L 73.617188 306.988281 L 74.03125 306.988281 L 74.03125 357.082031 L 125.230469 306.988281 L 125.441406 306.988281 L 130.53125 302.007812 L 272.640625 302.007812 C 289.457031 302.007812 304.582031 293.679688 315.082031 280.40625 Z M 362.351562 259.457031 L 421.347656 309.550781 L 421.347656 259.457031 L 421.824219 259.457031 L 421.824219 253.554688 C 453.085938 248.289062 476.898438 221.09375 476.898438 188.335938 L 476.898438 92.070312 C 476.898438 55.542969 447.285156 25.929688 410.753906 25.929688 L 192.503906 25.929688 C 155.972656 25.929688 126.359375 55.542969 126.359375 92.070312 L 126.359375 188.335938 C 126.359375 224.867188 155.972656 254.480469 192.503906 254.480469 L 356.242188 254.480469 L 362.109375 259.457031 Z M 362.351562 259.457031 "/></g><g clip-rule="nonzero" clip-path="url(#c655d8bcb4)"><path style=" stroke:none;fill-rule:nonzero;fill:#c4cbcd;fill-opacity:1;" d="M 338.257812 368.128906 L 346.789062 386.632812 L 367.023438 389.03125 L 352.066406 402.867188 L 356.035156 422.851562 L 338.257812 412.898438 L 320.476562 422.851562 L 324.445312 402.867188 L 309.488281 389.03125 L 329.722656 386.632812 Z M 338.257812 368.128906 "/></g><g clip-rule="nonzero" clip-path="url(#afdc8c2ad7)"><path style=" stroke:none;fill-rule:nonzero;fill:#c4cbcd;fill-opacity:1;" d="M 405.503906 368.128906 L 414.039062 386.632812 L 434.273438 389.03125 L 419.3125 402.867188 L 423.285156 422.851562 L 405.503906 412.898438 L 387.722656 422.851562 L 391.695312 402.867188 L 376.734375 389.03125 L 396.96875 386.632812 Z M 405.503906 368.128906 "/></g><path style=" stroke:none;fill-rule:nonzero;fill:#c4cbcd;fill-opacity:1;" d="M 220.726562 113.921875 C 235.019531 113.921875 246.621094 125.523438 246.621094 139.816406 C 246.621094 154.109375 235.019531 165.710938 220.726562 165.710938 C 206.433594 165.710938 194.832031 154.109375 194.832031 139.816406 C 194.832031 125.523438 206.433594 113.921875 220.726562 113.921875 Z M 220.726562 113.921875 "/><path style=" stroke:none;fill-rule:nonzero;fill:#c4cbcd;fill-opacity:1;" d="M 300.339844 113.921875 C 314.636719 113.921875 326.234375 125.523438 326.234375 139.816406 C 326.234375 154.109375 314.636719 165.710938 300.339844 165.710938 C 286.046875 165.710938 274.445312 154.109375 274.445312 139.816406 C 274.445312 125.523438 286.046875 113.921875 300.339844 113.921875 Z M 300.339844 113.921875 "/><path style=" stroke:none;fill-rule:nonzero;fill:#c4cbcd;fill-opacity:1;" d="M 383.84375 113.921875 C 398.136719 113.921875 409.738281 125.523438 409.738281 139.816406 C 409.738281 154.109375 398.136719 165.710938 383.84375 165.710938 C 369.550781 165.710938 357.949219 154.109375 357.949219 139.816406 C 357.949219 125.523438 369.550781 113.921875 383.84375 113.921875 Z M 383.84375 113.921875 "/></g><mask id="29dc7f7e6c"><g filter="url(#56c0603ac1)"><rect x="0" width="507" y="0" height="1416.749936" style="fill:#000000;fill-opacity:0.15;stroke:none;"/></g></mask></g></g><g clip-rule="nonzero" clip-path="url(#e9a56de5bc)"><g mask="url(#b2109b2b94)" transform="matrix(1,0,0,1,0,475)"><g clip-path="url(#1df4a84c91)"><g clip-rule="nonzero" clip-path="url(#7cf0743f37)"><path style=" stroke:none;fill-rule:nonzero;fill:#c4cbcd;fill-opacity:1;" d="M 137.03125 371.152344 L 145.566406 389.65625 L 165.800781 392.054688 L 150.839844 405.890625 L 154.8125 425.875 L 137.03125 415.921875 L 119.25 425.875 L 123.222656 405.890625 L 108.261719 392.054688 L 128.496094 389.65625 Z M 137.03125 371.152344 "/></g><g clip-rule="nonzero" clip-path="url(#e0d7291d3e)"><path style=" stroke:none;fill-rule:nonzero;fill:#c4cbcd;fill-opacity:1;" d="M 203.757812 371.152344 L 212.292969 389.65625 L 232.527344 392.054688 L 217.566406 405.890625 L 221.539062 425.875 L 203.757812 415.921875 L 185.976562 425.875 L 189.949219 405.890625 L 174.988281 392.054688 L 195.222656 389.65625 Z M 203.757812 371.152344 "/></g><g clip-rule="nonzero" clip-path="url(#3164b5c822)"><path style=" stroke:none;fill-rule:nonzero;fill:#c4cbcd;fill-opacity:1;" d="M 271.007812 371.152344 L 279.542969 389.65625 L 299.777344 392.054688 L 284.816406 405.890625 L 288.789062 425.875 L 271.007812 415.921875 L 253.226562 425.875 L 257.199219 405.890625 L 242.238281 392.054688 L 262.472656 389.65625 Z M 271.007812 371.152344 "/></g><g clip-rule="nonzero" clip-path="url(#aea040e37a)"><path style=" stroke:none;fill-rule:nonzero;fill:#c4cbcd;fill-opacity:1;" d="M 451.136719 372.464844 L 347.566406 287.59375 C 335.769531 313.378906 312.277344 330.957031 285.222656 330.957031 L 142.476562 330.957031 L 48.175781 419.996094 L 48.175781 326.742188 C 20.296875 315.9375 0.214844 285.574219 0.214844 249.808594 L 0.214844 131.703125 C 0.214844 86.886719 31.746094 50.554688 70.640625 50.554688 L 104.128906 50.554688 C 116.910156 22.515625 145.183594 3.023438 178.007812 3.023438 L 425.25 3.023438 C 470.066406 3.023438 506.398438 39.355469 506.398438 84.175781 L 506.398438 202.277344 C 506.398438 238.042969 483.261719 268.40625 451.136719 279.210938 Z M 178.007812 283.425781 C 133.191406 283.425781 96.859375 247.097656 96.859375 202.277344 L 96.859375 84.175781 C 96.859375 81.578125 96.980469 79.015625 97.21875 76.480469 L 83.222656 76.480469 C 51.519531 76.480469 25.816406 106.09375 25.816406 142.625 L 25.816406 238.886719 C 25.816406 271.648438 46.484375 298.84375 73.617188 304.109375 L 73.617188 310.011719 L 74.03125 310.011719 L 74.03125 360.105469 L 125.230469 310.011719 L 125.441406 310.011719 L 130.53125 305.03125 L 272.640625 305.03125 C 289.457031 305.03125 304.582031 296.703125 315.082031 283.425781 Z M 362.351562 262.480469 L 421.347656 312.574219 L 421.347656 262.480469 L 421.824219 262.480469 L 421.824219 256.578125 C 453.085938 251.3125 476.898438 224.117188 476.898438 191.359375 L 476.898438 95.09375 C 476.898438 58.566406 447.285156 28.953125 410.753906 28.953125 L 192.503906 28.953125 C 155.972656 28.953125 126.359375 58.566406 126.359375 95.09375 L 126.359375 191.359375 C 126.359375 227.886719 155.972656 257.5 192.503906 257.5 L 356.242188 257.5 L 362.109375 262.480469 Z M 362.351562 262.480469 "/></g><g clip-rule="nonzero" clip-path="url(#854cd7fe5a)"><path style=" stroke:none;fill-rule:nonzero;fill:#c4cbcd;fill-opacity:1;" d="M 338.257812 371.152344 L 346.789062 389.65625 L 367.023438 392.054688 L 352.066406 405.890625 L 356.035156 425.875 L 338.257812 415.921875 L 320.476562 425.875 L 324.445312 405.890625 L 309.488281 392.054688 L 329.722656 389.65625 Z M 338.257812 371.152344 "/></g><g clip-rule="nonzero" clip-path="url(#3f586540d6)"><path style=" stroke:none;fill-rule:nonzero;fill:#c4cbcd;fill-opacity:1;" d="M 405.503906 371.152344 L 414.039062 389.65625 L 434.273438 392.054688 L 419.3125 405.890625 L 423.285156 425.875 L 405.503906 415.921875 L 387.722656 425.875 L 391.695312 405.890625 L 376.734375 392.054688 L 396.96875 389.65625 Z M 405.503906 371.152344 "/></g><path style=" stroke:none;fill-rule:nonzero;fill:#c4cbcd;fill-opacity:1;" d="M 220.726562 116.945312 C 235.019531 116.945312 246.621094 128.546875 246.621094 142.839844 C 246.621094 157.132812 235.019531 168.734375 220.726562 168.734375 C 206.433594 168.734375 194.832031 157.132812 194.832031 142.839844 C 194.832031 128.546875 206.433594 116.945312 220.726562 116.945312 Z M 220.726562 116.945312 "/><path style=" stroke:none;fill-rule:nonzero;fill:#c4cbcd;fill-opacity:1;" d="M 300.339844 116.945312 C 314.636719 116.945312 326.234375 128.546875 326.234375 142.839844 C 326.234375 157.132812 314.636719 168.734375 300.339844 168.734375 C 286.046875 168.734375 274.445312 157.132812 274.445312 142.839844 C 274.445312 128.546875 286.046875 116.945312 300.339844 116.945312 Z M 300.339844 116.945312 "/><path style=" stroke:none;fill-rule:nonzero;fill:#c4cbcd;fill-opacity:1;" d="M 383.84375 116.945312 C 398.136719 116.945312 409.738281 128.546875 409.738281 142.839844 C 409.738281 157.132812 398.136719 168.734375 383.84375 168.734375 C 369.550781 168.734375 357.949219 157.132812 357.949219 142.839844 C 357.949219 128.546875 369.550781 116.945312 383.84375 116.945312 Z M 383.84375 116.945312 "/></g><mask id="b2109b2b94"><g filter="url(#56c0603ac1)"><rect x="0" width="507" y="0" height="1416.749936" style="fill:#000000;fill-opacity:0.15;stroke:none;"/></g></mask></g></g><g clip-rule="nonzero" clip-path="url(#e0c627b17b)"><g mask="url(#e14f8a0d1b)" transform="matrix(1,0,0,1,0,991)"><g clip-path="url(#7ff9cf4d46)"><g clip-rule="nonzero" clip-path="url(#149109ede9)"><path style=" stroke:none;fill-rule:nonzero;fill:#c4cbcd;fill-opacity:1;" d="M 137.03125 370.523438 L 145.566406 389.027344 L 165.800781 391.425781 L 150.839844 405.261719 L 154.8125 425.246094 L 137.03125 415.292969 L 119.25 425.246094 L 123.222656 405.261719 L 108.261719 391.425781 L 128.496094 389.027344 Z M 137.03125 370.523438 "/></g><g clip-rule="nonzero" clip-path="url(#1556a340c0)"><path style=" stroke:none;fill-rule:nonzero;fill:#c4cbcd;fill-opacity:1;" d="M 203.757812 370.523438 L 212.292969 389.027344 L 232.527344 391.425781 L 217.566406 405.261719 L 221.539062 425.246094 L 203.757812 415.292969 L 185.976562 425.246094 L 189.949219 405.261719 L 174.988281 391.425781 L 195.222656 389.027344 Z M 203.757812 370.523438 "/></g><g clip-rule="nonzero" clip-path="url(#885e846051)"><path style=" stroke:none;fill-rule:nonzero;fill:#c4cbcd;fill-opacity:1;" d="M 271.007812 370.523438 L 279.542969 389.027344 L 299.777344 391.425781 L 284.816406 405.261719 L 288.789062 425.246094 L 271.007812 415.292969 L 253.226562 425.246094 L 257.199219 405.261719 L 242.238281 391.425781 L 262.472656 389.027344 Z M 271.007812 370.523438 "/></g><g clip-rule="nonzero" clip-path="url(#b419c79205)"><path style=" stroke:none;fill-rule:nonzero;fill:#c4cbcd;fill-opacity:1;" d="M 451.136719 371.835938 L 347.566406 286.964844 C 335.769531 312.75 312.277344 330.328125 285.222656 330.328125 L 142.476562 330.328125 L 48.175781 419.367188 L 48.175781 326.113281 C 20.296875 315.308594 0.214844 284.945312 0.214844 249.179688 L 0.214844 131.074219 C 0.214844 86.257812 31.746094 49.925781 70.640625 49.925781 L 104.128906 49.925781 C 116.910156 21.886719 145.183594 2.398438 178.007812 2.398438 L 425.25 2.398438 C 470.066406 2.398438 506.398438 38.726562 506.398438 83.546875 L 506.398438 201.648438 C 506.398438 237.417969 483.261719 267.777344 451.136719 278.582031 Z M 178.007812 282.796875 C 133.191406 282.796875 96.859375 246.46875 96.859375 201.648438 L 96.859375 83.546875 C 96.859375 80.953125 96.980469 78.386719 97.21875 75.851562 L 83.222656 75.851562 C 51.519531 75.851562 25.816406 105.464844 25.816406 141.996094 L 25.816406 238.261719 C 25.816406 271.019531 46.484375 298.214844 73.617188 303.480469 L 73.617188 309.382812 L 74.03125 309.382812 L 74.03125 359.476562 L 125.230469 309.382812 L 125.441406 309.382812 L 130.53125 304.402344 L 272.640625 304.402344 C 289.457031 304.402344 304.582031 296.074219 315.082031 282.796875 Z M 362.351562 261.851562 L 421.347656 311.945312 L 421.347656 261.851562 L 421.824219 261.851562 L 421.824219 255.949219 C 453.085938 250.683594 476.898438 223.488281 476.898438 190.730469 L 476.898438 94.464844 C 476.898438 57.9375 447.285156 28.324219 410.753906 28.324219 L 192.503906 28.324219 C 155.972656 28.324219 126.359375 57.9375 126.359375 94.464844 L 126.359375 190.730469 C 126.359375 227.257812 155.972656 256.871094 192.503906 256.871094 L 356.242188 256.871094 L 362.109375 261.851562 Z M 362.351562 261.851562 "/></g><g clip-rule="nonzero" clip-path="url(#3cd3877f39)"><path style=" stroke:none;fill-rule:nonzero;fill:#c4cbcd;fill-opacity:1;" d="M 338.257812 370.523438 L 346.789062 389.027344 L 367.023438 391.425781 L 352.066406 405.261719 L 356.035156 425.246094 L 338.257812 415.292969 L 320.476562 425.246094 L 324.445312 405.261719 L 309.488281 391.425781 L 329.722656 389.027344 Z M 338.257812 370.523438 "/></g><g clip-rule="nonzero" clip-path="url(#e68f8cf5d2)"><path style=" stroke:none;fill-rule:nonzero;fill:#c4cbcd;fill-opacity:1;" d="M 405.503906 370.523438 L 414.039062 389.027344 L 434.273438 391.425781 L 419.3125 405.261719 L 423.285156 425.246094 L 405.503906 415.292969 L 387.722656 425.246094 L 391.695312 405.261719 L 376.734375 391.425781 L 396.96875 389.027344 Z M 405.503906 370.523438 "/></g><path style=" stroke:none;fill-rule:nonzero;fill:#c4cbcd;fill-opacity:1;" d="M 220.726562 116.316406 C 235.019531 116.316406 246.621094 127.917969 246.621094 142.210938 C 246.621094 156.503906 235.019531 168.105469 220.726562 168.105469 C 206.433594 168.105469 194.832031 156.503906 194.832031 142.210938 C 194.832031 127.917969 206.433594 116.316406 220.726562 116.316406 Z M 220.726562 116.316406 "/><path style=" stroke:none;fill-rule:nonzero;fill:#c4cbcd;fill-opacity:1;" d="M 300.339844 116.316406 C 314.636719 116.316406 326.234375 127.917969 326.234375 142.210938 C 326.234375 156.503906 314.636719 168.105469 300.339844 168.105469 C 286.046875 168.105469 274.445312 156.503906 274.445312 142.210938 C 274.445312 127.917969 286.046875 116.316406 300.339844 116.316406 Z M 300.339844 116.316406 "/><path style=" stroke:none;fill-rule:nonzero;fill:#c4cbcd;fill-opacity:1;" d="M 383.84375 116.316406 C 398.136719 116.316406 409.738281 127.917969 409.738281 142.210938 C 409.738281 156.503906 398.136719 168.105469 383.84375 168.105469 C 369.550781 168.105469 357.949219 156.503906 357.949219 142.210938 C 357.949219 127.917969 369.550781 116.316406 383.84375 116.316406 Z M 383.84375 116.316406 "/></g><mask id="e14f8a0d1b"><g filter="url(#56c0603ac1)"><rect x="0" width="507" y="0" height="1416.749936" style="fill:#000000;fill-opacity:0.15;stroke:none;"/></g></mask></g></g></g></svg>